<svg width="100" height="100" viewBox="0 0 333 179" fill="none" xmlns="http://www.w3.org/2000/svg">
<path d="M171.979 86.4707C171.979 100.143 170.107 112.675 166.363 124.068C162.62 135.38 157.005 145.105 149.518 153.243C142.112 161.381 132.875 167.729 121.808 172.286C110.821 176.762 98.0446 179 83.4775 179H0.958008V165.694H11.4561C13.3278 165.694 15.0368 165.532 16.583 165.206C18.1292 164.799 19.472 164.026 20.6113 162.887C21.7507 161.747 22.6458 160.12 23.2969 158.004C23.9479 155.888 24.2734 153.04 24.2734 149.459V28.9756C24.2734 25.639 23.9479 22.9941 23.2969 21.041C22.6458 19.0065 21.71 17.4603 20.4893 16.4023C19.3499 15.3444 18.0072 14.6527 16.4609 14.3271C14.9147 13.9202 13.2464 13.7168 11.4561 13.7168H0.958008V0.533203H83.4775C97.3122 0.533203 109.682 2.36426 120.587 6.02637C131.573 9.6071 140.851 15.0189 148.419 22.2617C156.069 29.4232 161.887 38.375 165.875 49.1172C169.944 59.8594 171.979 72.3105 171.979 86.4707ZM129.742 86.4707C129.742 62.6263 125.348 44.8854 116.559 33.248C107.851 21.6107 94.9928 15.792 77.9844 15.792H63.7021V163.497H77.7402C86.2852 163.497 93.8128 161.747 100.323 158.248C106.834 154.667 112.245 149.54 116.559 142.867C120.953 136.194 124.249 128.137 126.446 118.697C128.644 109.176 129.742 98.4336 129.742 86.4707ZM315.167 46.5537L313.946 34.4688C313.132 27.877 311.098 23.1162 307.843 20.1865C304.669 17.2568 300.519 15.792 295.392 15.792H255.597V84.0293H314.923V98.7998H255.597V149.459C255.597 153.04 255.922 155.888 256.573 158.004C257.306 160.12 258.242 161.747 259.381 162.887C260.52 164.026 261.904 164.799 263.531 165.206C265.159 165.532 266.868 165.694 268.658 165.694H284.161V179H192.853V165.694H203.351C205.141 165.694 206.809 165.532 208.355 165.206C209.902 164.881 211.244 164.229 212.384 163.253C213.604 162.195 214.54 160.689 215.191 158.736C215.842 156.702 216.168 154.057 216.168 150.802V28.9756C216.168 25.639 215.842 22.9941 215.191 21.041C214.54 19.0065 213.604 17.4603 212.384 16.4023C211.244 15.3444 209.902 14.6527 208.355 14.3271C206.809 13.9202 205.141 13.7168 203.351 13.7168H192.853V0.533203H331.402L332.623 46.5537H315.167Z" fill="white"/>
</svg>
